<svg xmlns="http://www.w3.org/2000/svg" viewBox="0 0 31 31"><defs><style>.cls-1{fill:#f29224;}</style></defs><title>Ativo 2</title><g id="Camada_2" data-name="Camada 2"><g id="icones"><path class="cls-1" d="M24.8,18.6A6.2,6.2,0,1,0,31,24.8,6.21,6.21,0,0,0,24.8,18.6Z"/><path class="cls-1" d="M25.83,2.07h-3.1V.78A.77.77,0,0,0,22,0H19.37a.78.78,0,0,0-.77.78V2.07H10.33V.78A.77.77,0,0,0,9.56,0H7A.78.78,0,0,0,6.2.78V2.07H3.1A3.1,3.1,0,0,0,0,5.17V7.49a.78.78,0,0,0,.78.78H28.16a.78.78,0,0,0,.77-.78V5.17A3.09,3.09,0,0,0,25.83,2.07Z"/><path class="cls-1" d="M28.16,10.33H.78a.78.78,0,0,0-.78.78V27.9H0A3.1,3.1,0,0,0,3.1,31H19.34a8.23,8.23,0,0,1-2.2-9.3H12.4V19.63h5.17V20.8a8.26,8.26,0,0,1,6.27-4.21h-3V14.53H26v2.06H25.7a8.27,8.27,0,0,1,3.23,1.06V11.11A.77.77,0,0,0,28.16,10.33ZM9.3,26.87H4.13V24.8H9.3Zm0-5.17H4.13V19.63H9.3Zm.15-5.11H4.29V14.53H9.45Zm8.27,0H12.55V14.53h5.17Z"/></g></g></svg>