<svg id="icones" xmlns="http://www.w3.org/2000/svg" viewBox="0 0 32 32"><defs><style>.cls-1{fill:#f29224;}</style></defs><title>appointment</title><path class="cls-1" d="M26.33,15.57h-3.1V14.28a.77.77,0,0,0-.77-.78H19.87a.78.78,0,0,0-.77.78v1.29H10.83V14.28a.77.77,0,0,0-.77-.78H7.47a.78.78,0,0,0-.77.78v1.29H3.6a3.1,3.1,0,0,0-3.1,3.1V21a.78.78,0,0,0,.78.78H28.66a.78.78,0,0,0,.77-.78V18.67A3.09,3.09,0,0,0,26.33,15.57Z"/><path class="cls-1" d="M28.66,23.83H1.28a.78.78,0,0,0-.78.78V41.4h0a3.1,3.1,0,0,0,3.1,3.1H19.84a8.23,8.23,0,0,1-2.2-9.3H12.9V33.13h5.17V34.3a8.26,8.26,0,0,1,6.27-4.21h-3V28h5.17v2.06H26.2a8.27,8.27,0,0,1,3.23,1.06V24.61A.77.77,0,0,0,28.66,23.83ZM9.8,40.37H4.63V38.3H9.8Zm0-5.17H4.63V33.13H9.8ZM10,30.09H4.79V28H10Zm8.27,0H13.05V28h5.17Z"/></svg>