<svg id="icones" xmlns="http://www.w3.org/2000/svg" viewBox="0 0 32 32"><defs><style>.cls-1{fill:#e4007a;}</style></defs><title>box</title><polygon class="cls-1" points="3.04 36.82 14.84 43.5 14.84 28.88 3.04 22.2 3.04 36.82"/><polygon class="cls-1" points="28.62 22.06 27.86 22.5 28.62 22.5 28.62 22.06"/><polygon class="cls-1" points="22.54 16.98 10.04 24.52 15.7 27.64 28.6 20.22 22.54 16.98"/><polygon class="cls-1" points="21.41 16.46 15.77 13.5 2.93 20.53 8.79 23.88 21.41 16.46"/><path class="cls-1" d="M33.51,25.42H31.79a1.87,1.87,0,0,0-1.47-.74H29.17v0A1.18,1.18,0,0,0,28,23.48H26a1.18,1.18,0,0,0-1.18,1.18v0H23.71a1.87,1.87,0,0,0-1.47.74H20.52a1.45,1.45,0,0,0-1.45,1.44v.71l-2.25,1.31V43.5l2.25-1.3v.36a2.9,2.9,0,0,0,2.9,2.9H32.06a2.9,2.9,0,0,0,2.9-2.9V26.86A1.45,1.45,0,0,0,33.51,25.42Zm-10.7,1.12a.9.9,0,0,1,.9-.9h2.1v-1a.22.22,0,0,1,.23-.22H28a.22.22,0,0,1,.23.22v1h2.1a.9.9,0,0,1,.9.9v.68a.22.22,0,0,1-.22.22H23a.23.23,0,0,1-.16-.06.25.25,0,0,1-.06-.16ZM34,42.56a1.94,1.94,0,0,1-1.94,1.94H22a1.91,1.91,0,0,1-1.08-.33A1.94,1.94,0,0,1,20,42.56h0V26.86a.47.47,0,0,1,.3-.44.38.38,0,0,1,.19,0h1.35a.78.78,0,0,0,0,.16h0c0,.05,0,.1,0,.15v.73a.88.88,0,0,0,.7.85,1.18,1.18,0,0,0,.49.12h8a1.18,1.18,0,0,0,.49-.12.88.88,0,0,0,.7-.85V26.7c0-.05,0-.1,0-.14v0a.78.78,0,0,0,0-.16h1.35a.49.49,0,0,1,.49.48Z"/></svg>