<svg xmlns="http://www.w3.org/2000/svg" viewBox="0 0 32.02 31.96"><defs><style>.cls-1{fill:#e4007a;}</style></defs><title>Ativo 3</title><g id="Camada_2" data-name="Camada 2"><g id="icones"><polygon class="cls-1" points="0.11 23.32 11.91 30 11.91 15.38 0.11 8.7 0.11 23.32"/><polygon class="cls-1" points="25.68 8.56 24.92 9 25.68 9 25.68 8.56"/><polygon class="cls-1" points="19.6 3.48 7.11 11.02 12.76 14.14 25.67 6.72 19.6 3.48"/><polygon class="cls-1" points="18.47 2.96 12.83 0 0 7.03 5.85 10.38 18.47 2.96"/><path class="cls-1" d="M30.58,11.92H28.86a1.87,1.87,0,0,0-1.47-.74H26.24v0A1.18,1.18,0,0,0,25.06,10h-2a1.18,1.18,0,0,0-1.18,1.18v0H20.78a1.87,1.87,0,0,0-1.48.74H17.58a1.45,1.45,0,0,0-1.44,1.44v.71l-2.26,1.31V30l2.26-1.3v.36A2.9,2.9,0,0,0,19,32H29.12a2.9,2.9,0,0,0,2.9-2.9V13.36A1.44,1.44,0,0,0,30.58,11.92ZM19.87,13a.9.9,0,0,1,.91-.9h2.1v-1a.22.22,0,0,1,.22-.22h2a.22.22,0,0,1,.22.22v1h2.11a.9.9,0,0,1,.9.9v.68a.22.22,0,0,1-.23.22h-8a.23.23,0,0,1-.16-.06.26.26,0,0,1-.07-.16Zm11.2,16A1.94,1.94,0,0,1,29.12,31H19A1.92,1.92,0,0,1,18,30.67a2,2,0,0,1-.85-1.61h0V13.36a.47.47,0,0,1,.29-.44.41.41,0,0,1,.19,0h1.35s0,.1,0,.16h0a.77.77,0,0,0,0,.15v.73a.89.89,0,0,0,.71.85,1.14,1.14,0,0,0,.49.12h8a1.14,1.14,0,0,0,.49-.12.89.89,0,0,0,.71-.85V13.2a.59.59,0,0,0,0-.14v0c0-.06,0-.11,0-.16h1.35a.49.49,0,0,1,.49.48Z"/><polygon class="cls-1" points="21.07 24.43 21.07 24.43 20.35 25.14 19.51 24.31 18.69 25.13 20.31 26.75 20.35 26.71 20.39 26.75 22.89 24.24 22.07 23.42 21.07 24.43"/><rect class="cls-1" x="24.47" y="19.16" width="5" height="1.16"/><rect class="cls-1" x="24.47" y="25.24" width="5" height="1.16"/><polygon class="cls-1" points="21.07 18.6 21.07 18.6 20.35 19.32 19.51 18.48 18.69 19.31 20.31 20.93 20.35 20.89 20.39 20.93 22.89 18.42 22.07 17.59 21.07 18.6"/></g></g></svg>