<svg id="icones" xmlns="http://www.w3.org/2000/svg" viewBox="0 0 32 32"><defs><style>.cls-1{fill:#e4007a;}</style></defs><title>box</title><polygon class="cls-1" points="0.1 36.82 11.9 43.5 11.9 28.88 0.1 22.2 0.1 36.82"/><polygon class="cls-1" points="25.67 22.06 24.91 22.5 25.67 22.5 25.67 22.06"/><polygon class="cls-1" points="19.59 16.98 7.09 24.52 12.75 27.64 25.66 20.22 19.59 16.98"/><polygon class="cls-1" points="18.46 16.46 12.82 13.5 -0.01 20.53 5.84 23.88 18.46 16.46"/><path class="cls-1" d="M30.57,25.42H28.85a1.87,1.87,0,0,0-1.47-.74H26.23v0a1.18,1.18,0,0,0-1.18-1.18h-2a1.18,1.18,0,0,0-1.18,1.18v0H20.76a1.87,1.87,0,0,0-1.47.74H17.57a1.45,1.45,0,0,0-1.44,1.44v.71l-2.26,1.31V43.5l2.26-1.3v.36a2.9,2.9,0,0,0,2.9,2.9H29.11a2.9,2.9,0,0,0,2.9-2.9V26.86A1.45,1.45,0,0,0,30.57,25.42ZM19.86,26.54a.9.9,0,0,1,.9-.9h2.11v-1a.22.22,0,0,1,.22-.22h2a.22.22,0,0,1,.22.22v1h2.11a.9.9,0,0,1,.9.9v.68a.22.22,0,0,1-.23.22h-8a.23.23,0,0,1-.16-.06.26.26,0,0,1-.07-.16Zm11.2,16a1.94,1.94,0,0,1-1.95,1.94H19a1.94,1.94,0,0,1-2-1.94h0V26.86a.48.48,0,0,1,.3-.44.41.41,0,0,1,.19,0h1.35c0,.05,0,.1,0,.16h0a.77.77,0,0,0,0,.15v.73a.89.89,0,0,0,.71.85,1.14,1.14,0,0,0,.49.12h8a1.14,1.14,0,0,0,.49-.12.89.89,0,0,0,.71-.85V26.7a.59.59,0,0,0,0-.14v0c0-.06,0-.11,0-.16h1.35a.49.49,0,0,1,.49.48Z"/></svg>