<svg xmlns="http://www.w3.org/2000/svg" xmlns:xlink="http://www.w3.org/1999/xlink" viewBox="0 0 39.55 51.86"><defs><style>.cls-1{fill:#fff;}.cls-2{fill:url(#linear-gradient);}</style><linearGradient id="linear-gradient" x1="19.77" y1="54.74" x2="19.77" y2="-3.24" gradientUnits="userSpaceOnUse"><stop offset="0" stop-color="#ae1789"/><stop offset="0.38" stop-color="#ea5d57"/><stop offset="0.69" stop-color="#f29224"/><stop offset="1" stop-color="#ffdb00"/></linearGradient></defs><title>F5-logo</title><g id="Layer_2" data-name="Layer 2"><g id="Layer_1-2" data-name="Layer 1"><path class="cls-1" d="M25.3,10.22h6a4.08,4.08,0,1,0,0-8.15H10.78A1.79,1.79,0,0,0,9,3.86V24a2.51,2.51,0,0,0,2.51,2.51H25.21a4.08,4.08,0,1,1,0,8.15H10.71A1.72,1.72,0,0,0,9,36.4v1.89a4.55,4.55,0,0,0,4.55,4.54H29.29a8.15,8.15,0,0,0,8.15-8.15V26.53a8.15,8.15,0,0,0-8.15-8.15H17.14V10.22Z"/><path class="cls-1" d="M29.29,43.35H13.54a5.07,5.07,0,0,1-5.07-5.06V36.4a2.25,2.25,0,0,1,2.24-2.24h14.5a3.56,3.56,0,1,0,0-7.11H11.5a3,3,0,0,1-3-3V3.86a2.31,2.31,0,0,1,2.31-2.31h20.5a4.6,4.6,0,1,1,0,9.19H17.66v7.12H29.29A8.68,8.68,0,0,1,38,26.53v8.15A8.68,8.68,0,0,1,29.29,43.35ZM10.71,35.2a1.2,1.2,0,0,0-1.2,1.2v1.89a4,4,0,0,0,4,4H29.29a7.64,7.64,0,0,0,7.63-7.63V26.53a7.64,7.64,0,0,0-7.63-7.63H16.62V9.7H31.28a3.56,3.56,0,1,0,0-7.11H10.78A1.27,1.27,0,0,0,9.51,3.86V24a2,2,0,0,0,2,2H25.21a4.6,4.6,0,1,1,0,9.19Z"/><path class="cls-2" d="M33.43,17.17a5,5,0,0,0,.25-5.33A6.16,6.16,0,0,0,31.31,0H10.81A3.87,3.87,0,0,0,6.94,3.87v5.5H2.43A2.43,2.43,0,0,0,0,11.8V46.92a4.95,4.95,0,0,0,9.89,0V43.81a6.63,6.63,0,0,0,3.68,1.12H29.31A10.25,10.25,0,0,0,39.55,34.69V26.54A10.25,10.25,0,0,0,33.43,17.17Zm4,17.52a8.15,8.15,0,0,1-8.16,8.15H13.57A4.55,4.55,0,0,1,9,38.3V36.41a1.72,1.72,0,0,1,1.72-1.72h14.5a4.08,4.08,0,0,0,0-8.15H11.53A2.51,2.51,0,0,1,9,24V3.87a1.79,1.79,0,0,1,1.79-1.79h20.5a4.08,4.08,0,1,1,0,8.15H17.17v8.16H29.31a8.15,8.15,0,0,1,8.16,8.15Z"/></g></g></svg>