<svg id="icones" xmlns="http://www.w3.org/2000/svg" viewBox="0 0 32 32"><defs><style>.cls-1{fill:#5a3ca0;}</style></defs><title>truck</title><path class="cls-1" d="M27.83,21.82H26.31V34.38h5.26a11.53,11.53,0,0,0,.43-3V24.8C32,23.15,30.13,21.82,27.83,21.82Z"/><path class="cls-1" d="M20.47,13.5H4.17A4.17,4.17,0,0,0,0,17.67V30a4.17,4.17,0,0,0,4.17,4.16L21,34.1A3.89,3.89,0,0,0,24.63,30V17.67A4.17,4.17,0,0,0,20.47,13.5ZM12.08,28.88a.59.59,0,0,1-.56.46l-.12,0a6.2,6.2,0,0,1-4.84-5.14H6.27A.44.44,0,0,1,5.9,24a.47.47,0,0,1,0-.43l1.16-2,1.16,2a.42.42,0,0,1,0,.43.41.41,0,0,1-.36.21H7.72a5,5,0,0,0,3.91,4,.59.59,0,0,1,.45.68ZM9.26,19.61a.59.59,0,0,1-.81,0,.51.51,0,0,1-.15-.41.57.57,0,0,1,.18-.4,6.23,6.23,0,0,1,7-.91l.17-.23a.41.41,0,0,1,.38-.18.44.44,0,0,1,.35.25l.95,2.12L15,19.58a.45.45,0,0,1-.35-.25.44.44,0,0,1,.05-.43l.08-.11A5,5,0,0,0,9.26,19.61Zm6.44,9,.1.27a.4.4,0,0,1-.06.42.42.42,0,0,1-.33.16h-.06l-2.3-.34,1.44-1.82a.44.44,0,0,1,.4-.15.42.42,0,0,1,.33.26l0,.13a5,5,0,0,0,2.3-5.12.56.56,0,0,1,.1-.43.58.58,0,0,1,.37-.23.51.51,0,0,1,.41.09.57.57,0,0,1,.25.37A6.22,6.22,0,0,1,15.7,28.63Z"/><polygon class="cls-1" points="11.82 28.82 11.82 28.82 11.82 28.82 11.82 28.82"/></svg>