<svg xmlns="http://www.w3.org/2000/svg" viewBox="0 0 32 26.27"><defs><style>.cls-1{fill:#5a3ca0;}</style></defs><title>Ativo 4</title><g id="Camada_2" data-name="Camada 2"><g id="icones"><path class="cls-1" d="M27.83,8.32H26.31V20.88h5.26A11.53,11.53,0,0,0,32,17.93V11.3C32,9.65,30.13,8.32,27.83,8.32Z"/><circle class="cls-1" cx="5.26" cy="24.04" r="2.23"/><circle class="cls-1" cx="10.52" cy="24.04" r="2.23"/><circle class="cls-1" cx="23.15" cy="24.04" r="2.23"/><path class="cls-1" d="M25.65,21.93A3.28,3.28,0,0,1,26.43,24h5.14V21.93Z"/><path class="cls-1" d="M12.68,21.93A3,3,0,0,1,13.54,24h6.32a3.29,3.29,0,0,1,.79-2.11Z"/><path class="cls-1" d="M20.47,0H4.17A4.17,4.17,0,0,0,0,4.17V16.49a4.17,4.17,0,0,0,4.17,4.16L21,20.6a3.89,3.89,0,0,0,3.65-4.11V4.17A4.17,4.17,0,0,0,20.47,0ZM12.08,15.38a.59.59,0,0,1-.56.46l-.12,0a6.2,6.2,0,0,1-4.84-5.14H6.27a.44.44,0,0,1-.37-.21.47.47,0,0,1,0-.43L7.06,8l1.16,2a.42.42,0,0,1,0,.43.41.41,0,0,1-.36.21H7.72a5,5,0,0,0,3.91,4,.59.59,0,0,1,.45.68ZM9.26,6.11a.59.59,0,0,1-.81,0,.51.51,0,0,1-.15-.41.57.57,0,0,1,.18-.4,6.23,6.23,0,0,1,7-.91l.17-.23A.41.41,0,0,1,16,3.94a.44.44,0,0,1,.35.25l.95,2.12L15,6.08a.45.45,0,0,1-.35-.25.44.44,0,0,1,.05-.43l.08-.11A5,5,0,0,0,9.26,6.11Zm6.44,9,.1.27a.4.4,0,0,1-.06.42.42.42,0,0,1-.33.16h-.06l-2.3-.34,1.44-1.82a.44.44,0,0,1,.4-.15.42.42,0,0,1,.33.26l0,.13a5,5,0,0,0,2.3-5.12.56.56,0,0,1,.1-.43A.58.58,0,0,1,18,8.27a.51.51,0,0,1,.41.09.57.57,0,0,1,.25.37A6.22,6.22,0,0,1,15.7,15.13Z"/><polygon class="cls-1" points="11.82 15.32 11.82 15.32 11.82 15.32 11.82 15.32"/></g></g></svg>