<svg xmlns="http://www.w3.org/2000/svg" viewBox="0 0 31.5 31.5"><defs><style>.cls-1{fill:none;}.cls-2{fill:#5a3ca0;}</style></defs><title>Ativo 1</title><g id="Camada_2" data-name="Camada 2"><g id="icones"><path class="cls-1" d="M30,15.75a14.08,14.08,0,0,0-1.46-6.24l-.19.13H23.42L22.6,8l-2.46-.82L18.49,8l-.82,1.64v2.47l.82,1.64,3.29,1.64,2.47-.82,1.64.82v3.29l1.64,1.64L28.35,22v.41A14.12,14.12,0,0,0,30,15.75Z"/><path class="cls-1" d="M19.31,3.07a2.86,2.86,0,0,1-1.64.82c-.82,0,0,.82,0,.82v.82h1.64l2.47-.82,1.64.82,1.65.82L26.12,6A14.4,14.4,0,0,0,21,2.51Z"/><path class="cls-1" d="M2.13,14.17l.69.69,1.39.7-.7,2.08L4.21,19l.69,1.39L7,21.11v3.47L7.68,26l.7.7.69,1.39v.27l.28.14.41-.41V26l.7-.69.69-.7V23.19l1.39-.69.7-.69.69-1.39V19l-1.39-.7H11.15V16.94h-.69l-2.08-.69H7l-.7-1.39H4.21l-.7-1.39V12.08l.7-.69H5.6l2.08-.7L9.07,9.31l1.39-.7.69-1.39h.7l1.39-.69-.7-.7-1.39-.69-1.39-.7L8.38,3.75H8.1A14.26,14.26,0,0,0,1.63,13.92Z"/><path class="cls-2" d="M15.75,0A15.75,15.75,0,1,0,31.5,15.75,15.77,15.77,0,0,0,15.75,0ZM27.53,20.32l-1.64-1.64V15.39l-1.64-.82-2.47.82-3.29-1.64-.82-1.64V9.64L18.49,8l1.65-.82L22.6,8l.82,1.64h4.93l.19-.13a14.11,14.11,0,0,1-.19,12.87V22ZM26.12,6l-1.05.35-1.65-.82-1.64-.82-2.47.82H17.67V4.71s-.82-.82,0-.82a2.86,2.86,0,0,0,1.64-.82L21,2.51A14.4,14.4,0,0,1,26.12,6ZM8.1,3.75h.28l1.38.69,1.39.7,1.39.69.7.7-1.39.69h-.7l-.69,1.39-1.39.7L7.68,10.69l-2.08.7H4.21l-.7.69v1.39l.7,1.39H6.29L7,16.25H8.38l2.08.69h.69v1.39h1.39l1.39.7v1.39l-.69,1.39-.7.69-1.39.69v1.39l-.69.7-.7.69v2.09l-.41.41-.28-.14v-.27l-.69-1.39-.7-.7L7,24.58V21.11L4.9,20.42,4.21,19l-.7-1.39.7-2.08-1.39-.7-.69-.69-.5-.25A14.26,14.26,0,0,1,8.1,3.75Z"/></g></g></svg>