<svg id="icones" xmlns="http://www.w3.org/2000/svg" viewBox="0 0 32 32"><defs><style>.cls-1{fill:none;}.cls-2{fill:#5a3ca0;}</style></defs><title>world</title><path class="cls-1" d="M30.25,29.25A14.08,14.08,0,0,0,28.79,23l-.19.13H23.67l-.82-1.64-2.46-.82-1.65.82-.82,1.64v2.47l.82,1.64L22,28.89l2.47-.82,1.64.82v3.29l1.64,1.64.82,1.65v.41A14.12,14.12,0,0,0,30.25,29.25Z"/><path class="cls-1" d="M19.56,16.57a2.86,2.86,0,0,1-1.64.82c-.82,0,0,.82,0,.82V19h1.64L22,18.21l1.64.82,1.65.82,1.05-.35A14.4,14.4,0,0,0,21.24,16Z"/><path class="cls-1" d="M2.38,27.67l.69.69,1.39.7-.7,2.08.7,1.39.69,1.39,2.09.69v3.47l.69,1.39.69.7.7,1.39v.27L9.6,42l.41-.41V39.47l.7-.69.69-.7V36.69L12.79,36l.7-.69.69-1.39V32.53l-1.39-.7H11.4V30.44h-.69l-2.09-.69H7.24l-.7-1.39H4.46L3.76,27V25.58l.7-.69H5.85l2.08-.7,1.39-1.38,1.39-.7.69-1.39h.7L13.49,20l-.7-.7-1.39-.69L10,17.94l-1.39-.69H8.35A14.26,14.26,0,0,0,1.88,27.42Z"/><path class="cls-2" d="M16,13.5A15.75,15.75,0,1,0,31.75,29.25,15.77,15.77,0,0,0,16,13.5ZM27.78,33.82l-1.64-1.64V28.89l-1.64-.82L22,28.89l-3.29-1.64-.82-1.64V23.14l.82-1.64,1.65-.82,2.46.82.82,1.64H28.6l.19-.13a14.11,14.11,0,0,1-.19,12.87v-.41ZM26.37,19.5l-1.05.35L23.67,19,22,18.21,19.56,19H17.92v-.82s-.82-.82,0-.82a2.86,2.86,0,0,0,1.64-.82L21.24,16A14.4,14.4,0,0,1,26.37,19.5Zm-18-2.25h.27l1.39.69,1.39.7,1.39.69.7.7-1.39.69h-.7l-.69,1.39-1.39.7L7.93,24.19l-2.08.7H4.46l-.7.69V27l.7,1.39H6.54l.7,1.39H8.62l2.09.69h.69v1.39h1.39l1.39.7v1.39l-.69,1.39-.7.69-1.39.69v1.39l-.69.7-.7.69v2.09L9.6,42l-.28-.14v-.27l-.7-1.39-.69-.7-.69-1.39V34.61l-2.09-.69-.69-1.39-.7-1.39.7-2.08-1.39-.7-.69-.69-.5-.25A14.26,14.26,0,0,1,8.35,17.25Z"/></svg>