<svg xmlns="http://www.w3.org/2000/svg" width="16" height="18.286" viewBox="0 0 16 18.286">
  <path id="calendar" d="M15.571,5.714H.429A.429.429,0,0,1,0,5.286V4A1.714,1.714,0,0,1,1.714,2.286H3.429V.429A.429.429,0,0,1,3.857,0H5.286a.429.429,0,0,1,.429.429V2.286h4.571V.429A.429.429,0,0,1,10.714,0h1.429a.429.429,0,0,1,.429.429V2.286h1.714A1.714,1.714,0,0,1,16,4V5.286A.429.429,0,0,1,15.571,5.714ZM.429,6.857H15.571A.429.429,0,0,1,16,7.286v9.286a1.714,1.714,0,0,1-1.714,1.714H1.714A1.714,1.714,0,0,1,0,16.571V7.286A.429.429,0,0,1,.429,6.857Zm11.9,3.427L11.326,9.27a.429.429,0,0,0-.606,0L6.933,13.024,5.291,11.368a.429.429,0,0,0-.606,0L3.67,12.372a.429.429,0,0,0,0,.606l2.95,2.974a.429.429,0,0,0,.606,0L12.33,10.89a.429.429,0,0,0,0-.606Z" fill="#fff"/>
</svg>
