<svg xmlns="http://www.w3.org/2000/svg" width="10" height="10" viewBox="0 0 10 10">
  <path id="check" d="M-1038.125-1019.625a5,5,0,0,1,5-5,5,5,0,0,1,5,5,5,5,0,0,1-5,5A5,5,0,0,1-1038.125-1019.625Zm1.94-3.06a4.3,4.3,0,0,0-1.266,3.06,4.3,4.3,0,0,0,1.266,3.06,4.3,4.3,0,0,0,3.06,1.267,4.3,4.3,0,0,0,3.06-1.267,4.294,4.294,0,0,0,1.267-3.06,4.3,4.3,0,0,0-1.267-3.06,4.3,4.3,0,0,0-3.06-1.266A4.3,4.3,0,0,0-1036.185-1022.685Zm1.849,4.907-1.346-1.346a.1.1,0,0,1,0-.137l.427-.428a.1.1,0,0,1,.068-.029.1.1,0,0,1,.068.029l1.067,1.067,2.933-2.954a.085.085,0,0,1,.068-.029.087.087,0,0,1,.067.029l.424.435a.1.1,0,0,1,0,.137l-3.214,3.231h0a.448.448,0,0,1-.279.132A.426.426,0,0,1-1034.337-1017.779Z" transform="translate(1038.125 1024.625)" fill="#70eb8d"/>
</svg>
