<svg xmlns="http://www.w3.org/2000/svg" width="15.833" height="21.111" viewBox="0 0 15.833 21.111">
  <path id="Icon_awesome-trash" data-name="Icon awesome-trash" d="M15.268,1.319H11.027L10.695.548A.845.845,0,0,0,9.935,0H5.9a.836.836,0,0,0-.756.548l-.332.771H.565A.618.618,0,0,0,0,1.979V3.3a.618.618,0,0,0,.565.66h14.7a.618.618,0,0,0,.565-.66V1.979A.618.618,0,0,0,15.268,1.319ZM1.88,19.256a1.833,1.833,0,0,0,1.693,1.855H12.26a1.833,1.833,0,0,0,1.693-1.855L14.7,5.278H1.131Z" transform="translate(0 0)" fill="#eb5e57"/>
</svg>
