<svg xmlns="http://www.w3.org/2000/svg" width="30.848" height="30.849" viewBox="0 0 30.848 30.849">
  <path id="Icon_metro-instagram" data-name="Icon metro-instagram" d="M28.3,1.928H7.692A5.136,5.136,0,0,0,2.571,7.049V27.655a5.136,5.136,0,0,0,5.121,5.121H28.3a5.136,5.136,0,0,0,5.121-5.121V7.049A5.136,5.136,0,0,0,28.3,1.928Zm-15.852,13.5h11.1a5.874,5.874,0,1,1-11.1,0Zm17.117,0V26.992a1.934,1.934,0,0,1-1.928,1.928H8.355a1.934,1.934,0,0,1-1.928-1.928V15.424H9.443a8.767,8.767,0,1,0,17.1,0l3.016,0Zm0-6.75a.967.967,0,0,1-.964.964H26.671a.967.967,0,0,1-.964-.964V6.748a.967.967,0,0,1,.964-.964H28.6a.967.967,0,0,1,.964.964Z" transform="translate(-2.571 -1.928)" fill="#fff"/>
</svg>
