<svg xmlns="http://www.w3.org/2000/svg" width="17.816" height="22.85" viewBox="0 0 17.816 22.85">
  <path id="Icon_material-lock" data-name="Icon material-lock" d="M21.589,9.117H20.476V6.94a5.569,5.569,0,0,0-11.135,0V9.117H8.227A2.209,2.209,0,0,0,6,11.293V22.173A2.209,2.209,0,0,0,8.227,24.35H21.589a2.209,2.209,0,0,0,2.227-2.176V11.293A2.209,2.209,0,0,0,21.589,9.117Zm-6.681,9.793a2.177,2.177,0,1,1,2.227-2.176A2.209,2.209,0,0,1,14.908,18.909ZM18.36,9.117h-6.9V6.94a3.453,3.453,0,0,1,6.9,0Z" transform="translate(-6 -1.5)" fill="#bcbcbc"/>
</svg>
