<svg xmlns="http://www.w3.org/2000/svg" width="17.903" height="18.15" viewBox="0 0 17.903 18.15">
  <path id="site" d="M76.883,111.689a9.307,9.307,0,0,0-8.9,6.381h1.318a7.6,7.6,0,0,1,.49-1.055h2.537a10.69,10.69,0,0,0-.277,1.055H73.34a9.918,9.918,0,0,1,.324-1.055h2.448v1.055h1.241v-1.055H80a9.256,9.256,0,0,1,.363,1.055h1.285a10.379,10.379,0,0,0-.31-1.055H83.97a7.6,7.6,0,0,1,.49,1.055h1.316A9.3,9.3,0,0,0,76.883,111.689Zm1.872,1.46a8.083,8.083,0,0,1,4.351,2.626H80.8A8.7,8.7,0,0,0,78.755,113.148Zm-4.107.091a8.24,8.24,0,0,0-1.828,2.534h-2.16A8.073,8.073,0,0,1,74.648,113.24Zm2.706.4a7.151,7.151,0,0,1,2,2.135h-2Zm-1.241.008v2.127h-1.87A6.569,6.569,0,0,1,76.113,113.647Zm-7.755,5.622a.53.53,0,0,0-.31.086.255.255,0,0,0-.125.213.819.819,0,0,0,.058.26l.659,1.894c.02.057.043.12.069.188a.648.648,0,0,0,.105.18.433.433,0,0,0,.174.122.734.734,0,0,0,.277.044.633.633,0,0,0,.33-.075.452.452,0,0,0,.174-.163,2.977,2.977,0,0,0,.122-.28l.59-1.662.587,1.67c.049.124.088.215.119.274a.439.439,0,0,0,.172.163.651.651,0,0,0,.332.072.642.642,0,0,0,.341-.075.446.446,0,0,0,.169-.172,2.744,2.744,0,0,0,.114-.288l.659-1.894a.91.91,0,0,0,.061-.26.253.253,0,0,0-.127-.213.534.534,0,0,0-.307-.086.488.488,0,0,0-.28.066.379.379,0,0,0-.133.147,1.549,1.549,0,0,0-.075.208l-.465,1.612-.521-1.509a2.822,2.822,0,0,0-.119-.277.476.476,0,0,0-.174-.169.663.663,0,0,0-.352-.078.7.7,0,0,0-.352.075.481.481,0,0,0-.186.174,2.01,2.01,0,0,0-.119.274l-.518,1.509-.468-1.623a.921.921,0,0,0-.141-.3.41.41,0,0,0-.341-.114Zm6.379,0a.53.53,0,0,0-.31.086.255.255,0,0,0-.125.213.84.84,0,0,0,.061.26l.659,1.894c.02.057.043.12.069.188a.641.641,0,0,0,.1.18.433.433,0,0,0,.174.122.734.734,0,0,0,.277.044.644.644,0,0,0,.332-.075.442.442,0,0,0,.172-.163,2.975,2.975,0,0,0,.122-.28l.59-1.662.587,1.67c.049.124.088.215.119.274a.439.439,0,0,0,.172.163.651.651,0,0,0,.332.072.642.642,0,0,0,.341-.075.446.446,0,0,0,.169-.172,2.744,2.744,0,0,0,.114-.288l.659-1.894a.91.91,0,0,0,.061-.26.253.253,0,0,0-.127-.213.534.534,0,0,0-.307-.086.488.488,0,0,0-.28.066.379.379,0,0,0-.133.147,1.548,1.548,0,0,0-.075.208l-.465,1.612-.521-1.509a2.824,2.824,0,0,0-.119-.277.465.465,0,0,0-.172-.169.663.663,0,0,0-.352-.078.709.709,0,0,0-.355.075.481.481,0,0,0-.186.174,2.009,2.009,0,0,0-.119.274l-.518,1.509-.468-1.623a.921.921,0,0,0-.138-.3.416.416,0,0,0-.343-.114Zm6.379,0a.53.53,0,0,0-.31.086.255.255,0,0,0-.125.213.839.839,0,0,0,.061.26l.659,1.894c.02.057.043.12.069.188a.641.641,0,0,0,.1.18.433.433,0,0,0,.174.122.734.734,0,0,0,.277.044.644.644,0,0,0,.332-.075.442.442,0,0,0,.172-.163,2.841,2.841,0,0,0,.125-.28l.587-1.662.587,1.67c.049.124.088.215.119.274a.439.439,0,0,0,.172.163.651.651,0,0,0,.332.072.641.641,0,0,0,.341-.075.447.447,0,0,0,.169-.172,2.744,2.744,0,0,0,.114-.288l.659-1.894a.91.91,0,0,0,.061-.26.25.25,0,0,0-.125-.213.543.543,0,0,0-.31-.086.488.488,0,0,0-.28.066.379.379,0,0,0-.133.147,1.549,1.549,0,0,0-.075.208l-.463,1.612-.523-1.509a2.824,2.824,0,0,0-.119-.277.465.465,0,0,0-.172-.169.663.663,0,0,0-.352-.078.709.709,0,0,0-.355.075.481.481,0,0,0-.186.174,2.009,2.009,0,0,0-.119.274l-.518,1.509-.465-1.623a.921.921,0,0,0-.141-.3.416.416,0,0,0-.343-.114ZM67.94,123.294a9.383,9.383,0,0,0,17.886,0h-1.31a7.642,7.642,0,0,1-.449,1.033H81.408a10.555,10.555,0,0,0,.285-1.033H80.428a8.672,8.672,0,0,1-.324,1.033h-2.75v-1.033H76.113v1.033H73.6a10.5,10.5,0,0,1-.294-1.033H72.033c.071.35.159.695.258,1.033H69.7a7.658,7.658,0,0,1-.451-1.033Zm2.573,2.274h2.224a7.879,7.879,0,0,0,1.831,2.7A8.055,8.055,0,0,1,70.513,125.567Zm3.606,0h1.994v2.318A5.911,5.911,0,0,1,74.119,125.567Zm3.235,0h2.133a6.8,6.8,0,0,1-2.133,2.26Zm3.559,0h2.34a8.07,8.07,0,0,1-4.559,2.828A8.353,8.353,0,0,0,80.913,125.567Z" transform="translate(-67.923 -111.689)" fill="#fff"/>
</svg>
